<mxfile host="app.diagrams.net" agent="Mozilla/5.0 (Windows NT 10.0; Win64; x64) AppleWebKit/537.36 (KHTML, like Gecko) Chrome/134.0.0.0 Safari/537.36 OPR/119.0.0.0" version="27.1.5">
  <diagram id="C5RBs43oDa-KdzZeNtuy" name="Page-1">
    <mxGraphModel dx="1611" dy="778" grid="1" gridSize="10" guides="1" tooltips="1" connect="1" arrows="1" fold="1" page="1" pageScale="1" pageWidth="827" pageHeight="1169" math="0" shadow="0">
      <root>
        <mxCell id="WIyWlLk6GJQsqaUBKTNV-0" />
        <mxCell id="WIyWlLk6GJQsqaUBKTNV-1" parent="WIyWlLk6GJQsqaUBKTNV-0" />
        <mxCell id="fqCBZtWJ85sr7qJjJOjh-8" style="edgeStyle=orthogonalEdgeStyle;rounded=0;orthogonalLoop=1;jettySize=auto;html=1;" edge="1" parent="WIyWlLk6GJQsqaUBKTNV-1" source="fqCBZtWJ85sr7qJjJOjh-0" target="fqCBZtWJ85sr7qJjJOjh-2">
          <mxGeometry relative="1" as="geometry" />
        </mxCell>
        <mxCell id="fqCBZtWJ85sr7qJjJOjh-0" value="Register" style="rounded=1;whiteSpace=wrap;html=1;" vertex="1" parent="WIyWlLk6GJQsqaUBKTNV-1">
          <mxGeometry x="330" y="70" width="150" height="60" as="geometry" />
        </mxCell>
        <mxCell id="fqCBZtWJ85sr7qJjJOjh-7" style="edgeStyle=orthogonalEdgeStyle;rounded=0;orthogonalLoop=1;jettySize=auto;html=1;" edge="1" parent="WIyWlLk6GJQsqaUBKTNV-1" source="fqCBZtWJ85sr7qJjJOjh-2" target="fqCBZtWJ85sr7qJjJOjh-3">
          <mxGeometry relative="1" as="geometry" />
        </mxCell>
        <mxCell id="fqCBZtWJ85sr7qJjJOjh-2" value="First Name &amp;gt; 2" style="rhombus;whiteSpace=wrap;html=1;" vertex="1" parent="WIyWlLk6GJQsqaUBKTNV-1">
          <mxGeometry x="340" y="180" width="130" height="80" as="geometry" />
        </mxCell>
        <mxCell id="fqCBZtWJ85sr7qJjJOjh-6" style="edgeStyle=orthogonalEdgeStyle;rounded=0;orthogonalLoop=1;jettySize=auto;html=1;entryX=0.5;entryY=0;entryDx=0;entryDy=0;" edge="1" parent="WIyWlLk6GJQsqaUBKTNV-1" source="fqCBZtWJ85sr7qJjJOjh-3" target="fqCBZtWJ85sr7qJjJOjh-5">
          <mxGeometry relative="1" as="geometry" />
        </mxCell>
        <mxCell id="fqCBZtWJ85sr7qJjJOjh-3" value="Last Name&amp;gt; 2" style="rhombus;whiteSpace=wrap;html=1;" vertex="1" parent="WIyWlLk6GJQsqaUBKTNV-1">
          <mxGeometry x="345" y="310" width="120" height="80" as="geometry" />
        </mxCell>
        <mxCell id="fqCBZtWJ85sr7qJjJOjh-10" style="edgeStyle=orthogonalEdgeStyle;rounded=0;orthogonalLoop=1;jettySize=auto;html=1;" edge="1" parent="WIyWlLk6GJQsqaUBKTNV-1" source="fqCBZtWJ85sr7qJjJOjh-5" target="fqCBZtWJ85sr7qJjJOjh-9">
          <mxGeometry relative="1" as="geometry" />
        </mxCell>
        <mxCell id="fqCBZtWJ85sr7qJjJOjh-5" value="Password&amp;nbsp; pass Regex ---&amp;gt;&lt;div&gt;[^(?=.*\d)(?=.*[a-z])(?=.*[A-Z])(?=.*[a-zA-Z]).{8,}$]&lt;/div&gt;" style="rhombus;whiteSpace=wrap;html=1;" vertex="1" parent="WIyWlLk6GJQsqaUBKTNV-1">
          <mxGeometry x="197.5" y="460" width="415" height="80" as="geometry" />
        </mxCell>
        <mxCell id="fqCBZtWJ85sr7qJjJOjh-16" style="edgeStyle=orthogonalEdgeStyle;rounded=0;orthogonalLoop=1;jettySize=auto;html=1;" edge="1" parent="WIyWlLk6GJQsqaUBKTNV-1" source="fqCBZtWJ85sr7qJjJOjh-9" target="fqCBZtWJ85sr7qJjJOjh-12">
          <mxGeometry relative="1" as="geometry" />
        </mxCell>
        <mxCell id="fqCBZtWJ85sr7qJjJOjh-9" value="PhoneNumber correct ?" style="rhombus;whiteSpace=wrap;html=1;" vertex="1" parent="WIyWlLk6GJQsqaUBKTNV-1">
          <mxGeometry x="317.5" y="600" width="175" height="80" as="geometry" />
        </mxCell>
        <mxCell id="fqCBZtWJ85sr7qJjJOjh-12" value="Return To Last Page" style="ellipse;whiteSpace=wrap;html=1;" vertex="1" parent="WIyWlLk6GJQsqaUBKTNV-1">
          <mxGeometry x="325" y="760" width="160" height="40" as="geometry" />
        </mxCell>
      </root>
    </mxGraphModel>
  </diagram>
</mxfile>
